Simulation
nRows=48
nColumns=15
endheader
time  TH_x TH_y TH_z SC_y  SC_z  SC_x  AC_y  AC_z  AC_x  GH_y  GH_z  GH_yy  EL_x  PS_y
0.0  0.000000  0.000000  0.000000  -28.87102038246197  -0.10736392180490294  2.9458402119648155  49.36007677926034  3.7379665513139946  -6.333425534387402  47.86681452519484  -1.7020171287806434  -17.886005279051407  22.63445281497613  0.000000
0.031  0.000000  0.000000  0.000000  -28.55167255279755  -0.0470805649070339  3.0474163393673064  49.1544273842796  3.606561240523271  -6.495734340330047  47.73567308193948  -1.6852802957756712  -17.96923806249606  22.74221449554198  0.000000
0.062  0.000000  0.000000  0.000000  -28.38934614006306  -0.022034013283370162  3.139366017994818  48.96915222494597  3.5037905849497646  -6.7095250476543855  47.716111780367676  -1.6887037113664518  -17.891466030465164  22.822383036374212  0.000000
0.093  0.000000  0.000000  0.000000  -28.46812583093577  -0.06079256020712885  3.271449565848436  48.86671199173978  3.3781676787831443  -6.901429823644568  47.698017611237745  -1.6094261040912896  -17.75033505437721  22.761217872609347  0.000000
0.124  0.000000  0.000000  0.000000  -28.510936227798318  -0.133661392871166  3.4028593849731155  48.82694136552283  3.229551213720334  -7.083842195287796  47.58146244727949  -1.4483733454483276  -17.63609618029779  22.666811611945313  0.000000
0.155  0.000000  0.000000  0.000000  -28.54438909015484  -0.2045492363309186  3.5417846833915823  48.80847935054963  3.0741649245156952  -7.244847818453172  47.39962242958332  -1.1870855845829527  -17.51322499468489  22.55612547463645  0.000000
0.186  0.000000  0.000000  0.000000  -28.564181312615624  -0.269019212627205  3.6948196376920217  48.782591940309366  2.9264685798024774  -7.4157944950890355  47.11715131861566  -0.8095645906111292  -17.413189933891655  22.419320655612115  0.000000
0.217  0.000000  0.000000  0.000000  -28.627774379791887  -0.3366302234744065  3.8323120030506272  48.73868059251156  2.840975253014043  -7.603477637870675  46.75252211274349  -0.28198949801008993  -17.28193735993066  22.230817480893673  0.000000
0.248  0.000000  0.000000  0.000000  -28.729183283936866  -0.4065192175022782  3.8793857270521674  48.651475822105375  2.812948670821619  -7.76808949401536  46.251187077189556  0.45000181442164483  -17.076164519571865  21.98484032712609  0.000000
0.279  0.000000  0.000000  0.000000  -28.825697542099583  -0.45758915916430165  3.896102220621193  48.55113310259322  2.7322611011501716  -7.908442842997632  45.53743370282852  1.370412948684617  -16.79377124405072  21.724286071279256  0.000000
0.31  0.000000  0.000000  0.000000  -28.87798216719109  -0.4806878344998137  3.9663741427567083  48.454144071731584  2.577376699898473  -8.047590131886183  44.6006927732203  2.372459323444678  -16.481383478409043  21.527493268140265  0.000000
0.34099999999999997  0.000000  0.000000  0.000000  -28.90267058976266  -0.4818735788819011  4.085308017030394  48.38283176433262  2.4268656224374494  -8.189897874101616  43.53340689556356  3.4013332776674856  -16.140941081643806  21.40025992864385  0.000000
0.372  0.000000  0.000000  0.000000  -28.93578078115848  -0.4807018075293638  4.224166639880648  48.335193997490826  2.3321666201768227  -8.32488402195211  42.40166972872858  4.468195858429478  -15.783662389925315  21.3112338182894  0.000000
0.403  0.000000  0.000000  0.000000  -29.01023529315891  -0.5002923556816292  4.338113541486656  48.351243825282396  2.3059075657944232  -8.412737526789856  41.2078786956484  5.613393255712883  -15.460601670241589  21.24142232989793  0.000000
0.434  0.000000  0.000000  0.000000  -29.128363722919673  -0.5403282574899504  4.409390458879463  48.45753334709535  2.3285780671925504  -8.406106963187636  39.949479709253254  6.8507179356059735  -15.211913940305257  21.202467833122927  0.000000
0.46499999999999997  0.000000  0.000000  0.000000  -29.266284593700547  -0.5907396402417849  4.449168927870794  48.657165141133554  2.374951565987249  -8.307241375648148  38.64279288096946  8.179182175635171  -15.045356682039573  21.215424479046366  0.000000
0.496  0.000000  0.000000  0.000000  -29.39253109195591  -0.6381090117775811  4.46155764815599  48.91334684630002  2.4526685377914985  -8.142143597175592  37.325004055970204  9.583545844784984  -14.931973128638356  21.290512572704788  0.000000
0.527  0.000000  0.000000  0.000000  -29.48079774846555  -0.6623730791330018  4.454037613404927  49.18295666487241  2.5668458546457718  -7.936711602262991  36.03373585624102  11.04703202746531  -14.835339734466583  21.40204775607139  0.000000
0.558  0.000000  0.000000  0.000000  -29.528537240680986  -0.6491056552535347  4.446337447335455  49.43563327518261  2.712743036574805  -7.71945022537286  34.80124254812323  12.562068363934847  -14.724447005543094  21.51561936895248  0.000000
0.589  0.000000  0.000000  0.000000  -29.546123357368398  -0.5897234833007916  4.459185646018229  49.65476105120974  2.8800183746319856  -7.508777377369639  33.64716121837107  14.124514431122826  -14.59186690963975  21.60562231853709  0.000000
0.62  0.000000  0.000000  0.000000  -29.55010175984858  -0.48379561522917974  4.508060162094729  49.83937638662129  3.0584489918465825  -7.315371791094283  32.58309919804151  15.735174231954332  -14.448636499649131  21.66398112195748  0.000000
0.651  0.000000  0.000000  0.000000  -29.55349854062951  -0.33657371986320445  4.607790224112327  49.99744412437916  3.234755100496322  -7.1442392241818915  31.614727681801362  17.396821733392944  -14.318132204354312  21.69007378021567  0.000000
0.6819999999999999  0.000000  0.000000  0.000000  -29.5606213048143  -0.15785179883306844  4.766996304485448  50.142657030285626  3.3980233289875024  -6.9975919750869995  30.738493135011606  19.115612568637978  -14.224493510637693  21.68484028015655  0.000000
0.713  0.000000  0.000000  0.000000  -29.56460089366506  0.040074999400471455  4.9867006729629395  50.284976314287654  3.5449970476818886  -6.876732066407701  29.940623080254912  20.895381964780764  -14.180902210736916  21.65137686734  0.000000
0.744  0.000000  0.000000  0.000000  -29.551669459384012  0.24610612138167726  5.265241502040408  50.42878596958111  3.675273287989548  -6.786636691155854  29.200778533758097  22.73589476321304  -14.185912934341877  21.59639786799791  0.000000
0.775  0.000000  0.000000  0.000000  -29.512159107151117  0.4533762449214073  5.602030443469312  50.57325170924855  3.791593170983969  -6.732610833451024  28.505138926587506  24.626860052579524  -14.228004241570842  21.52840712396848  0.000000
0.806  0.000000  0.000000  0.000000  -29.446528820929707  0.660132741369726  5.999270665078021  50.719115290399216  3.896331115181205  -6.717072493220529  27.852836728961744  26.54813317382992  -14.299061820444383  21.4514043165391  0.000000
0.837  0.000000  0.000000  0.000000  -29.364698849148624  0.8679176715649439  6.461249166953021  50.86969584579543  3.9925754331974828  -6.737354440058829  27.25526439363365  28.469602306399608  -14.401539902704465  21.362669396956765  0.000000
0.868  0.000000  0.000000  0.000000  -29.278267525235915  1.07873582954002  6.990263117638385  51.02930031503898  4.082324603574041  -6.788590654380087  26.726306493889798  30.360476218565054  -14.545487586591314  21.25557668105046  0.000000
0.899  0.000000  0.000000  0.000000  -29.1942031727724  1.2931063895415875  7.585769558887477  51.19867781700801  4.1669114619759045  -6.86714309530397  26.274132044349464  32.19443031112508  -14.73952557657325  21.124307798361514  0.000000
0.9299999999999999  0.000000  0.000000  0.000000  -29.113727018093563  1.5100984322762896  8.243523208928133  51.37425051258376  4.245156834725017  -6.972240633471382  25.89741166746118  33.95551864897659  -14.986554040092441  20.965867895597903  0.000000
0.961  0.000000  0.000000  0.000000  -29.036582753904636  1.7289969648339314  8.958546684922691  51.548511622045055  4.314883026320228  -7.105416985149853  25.590148293969587  35.63507934063928  -15.286735879849944  20.77928232299417  0.000000
0.992  0.000000  0.000000  0.000000  -28.964936040948057  1.9510473956096048  9.726331528059317  51.71130930529303  4.374289591795392  -7.269235664031661  25.34957718139774  37.22966200336042  -15.643177905424157  20.565130709059545  0.000000
1.023  0.000000  0.000000  0.000000  -28.904913972479914  2.180233460914514  10.54607614742438  51.8512825729952  4.422605815325626  -7.466684397218064  25.1799855333383  38.73762971923368  -16.065143324157685  20.32564889410929  0.000000
1.054  0.000000  0.000000  0.000000  -28.864675017781675  2.4224150722022215  11.419387955173907  51.95967266948646  4.459786104018769  -7.698267750942673  25.0876273479057  40.16025957717083  -16.563328849568105  20.064358815755885  0.000000
1.085  0.000000  0.000000  0.000000  -28.850532778207672  2.6829359968419073  12.349543314773117  52.034823623184266  4.486536553619872  -7.95987948760648  25.06821632013231  41.501987920547926  -17.135792316319716  19.78728336319183  0.000000
1.116  0.000000  0.000000  0.000000  -28.8643315052182  2.963536806907868  13.338673539951508  52.08529985087957  4.5052182183281415  -8.241378131413034  25.097234650983165  42.77080448045146  -17.754571487358273  19.504454387447485  0.000000
1.147  0.000000  0.000000  0.000000  -28.904752198214513  3.261355630108039  14.387438435038844  52.12762140461669  4.518964573248247  -8.52935239841602  25.132437001114372  43.97615834344459  -18.36798802024906  19.22968130551035  0.000000
1.178  0.000000  0.000000  0.000000  -28.970684702530487  3.5711349048988543  15.49197235753679  52.17729535572272  4.530729036447073  -8.809650423476555  25.13160230291703  45.12743746002753  -18.92099012437327  18.976502698895658  0.000000
1.209  0.000000  0.000000  0.000000  -29.065220286759978  3.888828702444946  16.643399710968087  52.240518995707625  4.542819999894182  -9.071395824172297  25.07202134789325  46.2319076426275  -19.37673442654141  18.756042176358946  0.000000
1.24  0.000000  0.000000  0.000000  -29.196427759088003  4.214241758733312  17.829841217165743  52.31151806660867  4.554983218156477  -9.308359468639157  24.958576662812195  47.293679263841724  -19.72830000102841  18.57469857888874  0.000000
1.271  0.000000  0.000000  0.000000  -29.3743891956206  4.5492182064924975  19.03885953297568  52.37822587721529  4.566216853636198  -9.51801134877405  24.81415198602955  48.312429804554235  -19.990877434423652  18.432223977517992  0.000000
1.302  0.000000  0.000000  0.000000  -29.60340321237825  4.895015066747468  20.258359475434133  52.428649147220234  4.575587608149293  -9.700328683347378  24.661986027426906  49.285446228813605  -20.18582970743324  18.324360553398417  0.000000
1.333  0.000000  0.000000  0.000000  -29.87439662075709  5.248566770424246  21.477335344005255  52.456737906424486  4.5833890174155  -9.856954156436275  24.509348590558613  50.20964168792108  -20.32923880158329  18.242112504137257  0.000000
1.3639999999999999  0.000000  0.000000  0.000000  -30.16874199236074  5.6025804322880814  22.684779100291543  52.46211385536806  4.591498102616739  -9.98989862177098  24.347563044658184  51.08445549661426  -20.432398086922614  18.176068475864707  0.000000
1.395  0.000000  0.000000  0.000000  -30.474266591226183  5.952855043860854  23.873062433460547  52.44968936709536  4.599264847818084  -10.097510384988185  24.16513189844775  51.908502168125196  -20.506616659718652  18.12012744692864  0.000000
1.426  0.000000  0.000000  0.000000  -30.789587011435927  6.295617735940572  25.03937950097392  52.427069843537694  4.605316778256652  -10.17743827598108  23.960753545248792  52.67696987725423  -20.570375640980956  18.071696374948107  0.000000
1.457  0.000000  0.000000  0.000000  -31.12491595633815  6.629836849520553  26.18057036599887  52.40186614586515  4.610698458560342  -10.222172914130374  23.74870787491038  53.37864111465328  -20.644974249735636  18.03137577083852  0.000000
